<svg width="58" height="49" viewBox="0 0 58 49" fill="none" xmlns="http://www.w3.org/2000/svg">
<path d="M17.9732 36.5607C27.8521 36.5607 35.8605 28.5523 35.8605 18.6734C35.8605 8.79454 27.8521 0.786133 17.9732 0.786133C8.09434 0.786133 0.0859375 8.79454 0.0859375 18.6734C0.0859375 28.5523 8.09434 36.5607 17.9732 36.5607Z" fill="#9088AD"/>
<path opacity="0.796177" d="M39.4381 36.5607C49.3169 36.5607 57.3253 28.5523 57.3253 18.6734C57.3253 8.79454 49.3169 0.786133 39.4381 0.786133C29.5592 0.786133 21.5508 8.79454 21.5508 18.6734C21.5508 28.5523 29.5592 36.5607 39.4381 36.5607Z" fill="#9088AD"/>
<path fill-rule="evenodd" clip-rule="evenodd" d="M57.663 47.2869C57.6033 47.2617 57.5413 47.249 57.4735 47.249C57.4046 47.249 57.3415 47.2617 57.2817 47.2869C57.222 47.3111 57.1704 47.3455 57.1267 47.3891C57.0831 47.4316 57.0486 47.4822 57.0234 47.5407C56.9981 47.5981 56.9855 47.6601 56.9855 47.7256C56.9855 47.7911 56.9981 47.8531 57.0234 47.9105C57.0486 47.9679 57.0831 48.0184 57.1267 48.0621C57.1704 48.1045 57.222 48.139 57.2817 48.1643C57.3415 48.1895 57.4046 48.2021 57.4735 48.2021C57.5413 48.2021 57.6033 48.1895 57.663 48.1643C57.7216 48.139 57.7721 48.1045 57.8169 48.0621C57.8605 48.0184 57.895 47.9679 57.9202 47.9105C57.9455 47.8531 57.9581 47.7911 57.9581 47.7256C57.9581 47.6601 57.9455 47.5981 57.9202 47.5407C57.895 47.4822 57.8605 47.4316 57.8169 47.3891C57.7721 47.3455 57.7216 47.3111 57.663 47.2869ZM57.4691 48.0978C57.5208 48.0978 57.569 48.0874 57.6127 48.0679C57.6574 48.0484 57.6965 48.022 57.7298 47.9887C57.7631 47.9554 57.7895 47.9163 57.809 47.8704C57.8274 47.8256 57.8377 47.7774 57.8377 47.7257C57.8377 47.6741 57.8274 47.6258 57.809 47.581C57.7895 47.5363 57.7631 47.4961 57.7298 47.4628C57.6965 47.4295 57.6574 47.4031 57.6127 47.3835C57.569 47.3652 57.5208 47.356 57.4691 47.356C57.4174 47.356 57.3681 47.3652 57.3233 47.3835C57.2773 47.4031 57.2372 47.4295 57.2038 47.4628C57.1706 47.4961 57.1441 47.5363 57.1258 47.581C57.1062 47.6258 57.0971 47.6741 57.0971 47.7257C57.0971 47.7774 57.1062 47.8256 57.1258 47.8704C57.1441 47.9163 57.1706 47.9554 57.2038 47.9887C57.2372 48.022 57.2773 48.0484 57.3233 48.0679C57.3681 48.0874 57.4174 48.0978 57.4691 48.0978ZM57.6285 47.5413C57.5975 47.5161 57.5539 47.5034 57.4976 47.5034H57.2932V47.9455H57.3874V47.7802H57.431L57.5654 47.9455H57.6779L57.5332 47.779C57.5792 47.7733 57.6136 47.7584 57.6377 47.7354C57.663 47.7113 57.6745 47.6814 57.6745 47.6447C57.6745 47.601 57.6595 47.5666 57.6285 47.5413ZM57.3899 47.7047V47.5864H57.499C57.5231 47.5864 57.5438 47.591 57.5587 47.6014C57.5725 47.6106 57.5806 47.6255 57.5806 47.645C57.5806 47.6645 57.5725 47.6806 57.5587 47.6898C57.5438 47.699 57.5231 47.7047 57.499 47.7047H57.3899ZM12.7334 45.547C12.7334 44.7041 13.2858 44.0117 14.1884 44.0117C15.0507 44.0117 15.6329 44.6742 15.6329 45.547C15.6329 46.4197 15.0507 47.0822 14.1884 47.0822C13.2858 47.0822 12.7334 46.3898 12.7334 45.547ZM16.6138 43.1484V45.5461V47.9437H15.5712V47.3615C15.2404 47.7933 14.7386 48.0643 14.0565 48.0643C12.7119 48.0643 11.6577 47.0113 11.6577 45.5461C11.6577 44.082 12.7119 43.0278 14.0565 43.0278C14.7386 43.0278 15.2404 43.2988 15.5712 43.7306V43.1484H16.6138ZM51.8467 45.547C51.8467 44.7041 52.399 44.0117 53.3016 44.0117C54.1651 44.0117 54.7462 44.6742 54.7462 45.547C54.7462 46.4197 54.1651 47.0822 53.3016 47.0822C52.399 47.0822 51.8467 46.3898 51.8467 45.547ZM55.7292 41.2227V45.5461V47.9437H54.6853V47.3615C54.3546 47.7933 53.8528 48.0643 53.1707 48.0643C51.826 48.0643 50.7719 47.0113 50.7719 45.5461C50.7719 44.082 51.826 43.0278 53.1707 43.0278C53.8528 43.0278 54.3546 43.2988 54.6853 43.7306V41.2227H55.7292ZM29.5556 43.9619C30.2273 43.9619 30.6591 44.3833 30.7693 45.1251H28.2809C28.3923 44.4327 28.8126 43.9619 29.5556 43.9619ZM27.1866 45.5461C27.1866 44.051 28.1696 43.0278 29.5751 43.0278C30.9186 43.0278 31.8419 44.051 31.8522 45.5461C31.8522 45.6862 31.8419 45.8171 31.8315 45.9468H28.2706C28.421 46.8104 29.0331 47.1215 29.7049 47.1215C30.186 47.1215 30.6981 46.9401 31.1001 46.6197L31.6111 47.3925C31.0289 47.884 30.3674 48.0643 29.6451 48.0643C28.2097 48.0643 27.1866 47.071 27.1866 45.5461ZM42.166 45.547C42.166 44.7041 42.7183 44.0117 43.6209 44.0117C44.4833 44.0117 45.0655 44.6742 45.0655 45.547C45.0655 46.4197 44.4833 47.0822 43.6209 47.0822C42.7183 47.0822 42.166 46.3898 42.166 45.547ZM46.051 43.1484V45.5461V47.9437H45.0084V47.3615C44.6765 47.7933 44.1758 48.0643 43.4937 48.0643C42.1491 48.0643 41.0949 47.0113 41.0949 45.5461C41.0949 44.082 42.1491 43.0278 43.4937 43.0278C44.1758 43.0278 44.6765 43.2988 45.0084 43.7306V43.1484H46.051ZM36.2797 45.5461C36.2797 47.001 37.2925 48.0643 38.8381 48.0643C39.5604 48.0643 40.0416 47.9035 40.5629 47.4925L40.0622 46.6496C39.6707 46.9309 39.2596 47.0814 38.8071 47.0814C37.9746 47.071 37.3625 46.4693 37.3625 45.5461C37.3625 44.6228 37.9746 44.0211 38.8071 44.0108C39.2596 44.0108 39.6707 44.1612 40.0622 44.4425L40.5629 43.5997C40.0416 43.1886 39.5604 43.0278 38.8381 43.0278C37.2925 43.0278 36.2797 44.0911 36.2797 45.5461ZM48.4545 43.73C48.7255 43.3086 49.1171 43.0273 49.7188 43.0273C49.9301 43.0273 50.2309 43.0675 50.4618 43.1582L50.1402 44.1411C49.9198 44.0504 49.6993 44.0206 49.488 44.0206C48.8059 44.0206 48.4648 44.4615 48.4648 45.255V47.9432H47.421V43.1479H48.4545V43.73ZM21.7727 43.5296C21.2709 43.1989 20.5796 43.0278 19.8171 43.0278C18.6022 43.0278 17.8202 43.61 17.8202 44.5631C17.8202 45.3451 18.4024 45.8274 19.4749 45.9778L19.9675 46.0479C20.5394 46.1283 20.8093 46.2787 20.8093 46.5497C20.8093 46.9206 20.428 47.1319 19.7161 47.1319C18.9938 47.1319 18.4724 46.9011 18.1211 46.6301L17.6296 47.4419C18.2014 47.8634 18.9237 48.0643 19.7057 48.0643C21.0906 48.0643 21.8933 47.4121 21.8933 46.4992C21.8933 45.6563 21.2617 45.2153 20.2179 45.0649L19.7264 44.9937C19.2751 44.934 18.9134 44.8444 18.9134 44.5229C18.9134 44.1715 19.2544 43.9614 19.8263 43.9614C20.4383 43.9614 21.0309 44.1922 21.3214 44.3725L21.7727 43.5296ZM33.9623 43.73C34.2322 43.3086 34.6237 43.0273 35.2254 43.0273C35.4367 43.0273 35.7376 43.0675 35.9684 43.1582L35.6469 44.1411C35.4264 44.0504 35.2059 44.0206 34.9946 44.0206C34.3125 44.0206 33.9715 44.4615 33.9715 45.255V47.9432H32.9288V43.1479H33.9623V43.73ZM26.3284 43.1484H24.6231V41.6935H23.569V43.1484H22.5964V44.1015H23.569V46.289C23.569 47.4017 24.0008 48.0643 25.234 48.0643C25.6865 48.0643 26.2078 47.9242 26.5385 47.6934L26.2377 46.8C25.9265 46.9803 25.5854 47.071 25.3144 47.071C24.7931 47.071 24.6231 46.7495 24.6231 46.2683V44.1015H26.3284V43.1484ZM10.7361 44.9335V47.9432H9.68199V45.2745C9.68199 44.4615 9.34094 44.0102 8.62899 44.0102C7.93655 44.0102 7.45541 44.4523 7.45541 45.2849V47.9432H6.40126V45.2745C6.40126 44.4615 6.05102 44.0102 5.35859 44.0102C4.64549 44.0102 4.18386 44.4523 4.18386 45.2849V47.9432H3.13086V43.1479H4.17468V43.7392C4.56625 43.1777 5.06692 43.0273 5.57907 43.0273C6.31169 43.0273 6.83302 43.3488 7.16374 43.8805C7.60584 43.2076 8.23741 43.0169 8.84946 43.0273C10.0139 43.0376 10.7361 43.8001 10.7361 44.9335Z" fill="#9088AD"/>
</svg>
