<svg width="88" height="29" viewBox="0 0 88 29" fill="none" xmlns="http://www.w3.org/2000/svg">
<path fill-rule="evenodd" clip-rule="evenodd" d="M45.6834 9.39148C45.6334 13.3336 49.1966 15.5336 51.8808 16.8415C54.6387 18.1836 55.565 19.0441 55.5545 20.2441C55.5334 22.0809 53.3545 22.8914 51.315 22.923C47.8532 22.9768 45.8015 22.0166 44.1782 21.2568L44.044 21.1941L42.7624 27.1914C44.4124 27.9519 47.4676 28.6151 50.6361 28.644C58.0729 28.644 62.9386 24.973 62.965 19.2809C62.9823 14.9595 59.4028 13.0801 56.5385 11.5762C54.6149 10.5662 53.0138 9.7256 53.0413 8.42833C53.065 7.44938 53.9992 6.40465 56.0466 6.13886C57.0597 6.00465 59.8571 5.90202 63.0281 7.36254L64.2728 1.55993C62.5676 0.938883 60.3755 0.344149 57.6466 0.344149C50.6466 0.344149 45.7229 4.06519 45.6834 9.39148ZM76.2366 0.843931C74.8787 0.843931 73.734 1.63603 73.2234 2.85182L62.5998 28.2175L70.0314 28.2175L71.5103 24.1307H80.5918L81.4497 28.2175L87.9997 28.2175L82.2839 0.843931H76.2366ZM79.4233 18.5201L77.2785 8.24118L73.5496 18.5201H79.4233ZM36.6775 0.843931L30.8196 28.2175H37.9012L43.7564 0.843931H36.6775ZM18.831 19.4754L26.202 0.843931L33.6388 0.843931L22.1652 28.2175H14.681L9.03362 6.37286C8.69152 5.02813 8.39415 4.53339 7.35205 3.9676C5.64943 3.04129 2.83891 2.1755 0.365234 1.63866L0.533655 0.843931L12.5836 0.843931C14.1178 0.843931 15.4994 1.86498 15.8494 3.63339L18.831 19.4754Z" fill="#9088AD"/>
</svg>
