<svg width="123" height="29" viewBox="0 0 123 29" fill="none" xmlns="http://www.w3.org/2000/svg">
<path fill-rule="evenodd" clip-rule="evenodd" d="M107.808 0.500977C110.025 0.500977 112.134 1.00893 114.027 1.91756C114.324 2.05149 114.623 2.21179 114.918 2.37222L113.621 3.52191L111.675 1.51702L108.322 4.45719L106.348 2.34516L100.182 7.82523L104.13 12.129L102.589 13.4652L106.483 17.7689L104.942 19.1046L110.512 25.2261L113.809 22.2321L116.677 25.4407C116.109 25.8684 115.487 26.297 114.812 26.6706C112.756 27.8199 110.376 28.4869 107.835 28.4869C100.02 28.4869 93.6661 22.2064 93.6661 14.4819C93.6385 6.8096 99.9931 0.500977 107.808 0.500977ZM105.21 13.6264L108.59 10.6324L111.619 13.9736L108.239 16.9674L105.21 13.6264ZM110.976 16.3804L107.624 19.4009L110.652 22.7155L114.032 19.7214L110.976 16.3804ZM102.81 7.9323L106.19 4.93828L109.218 8.27953L105.838 11.2734L102.81 7.9323ZM111.51 4.08336L108.995 6.32863L111.267 8.84121L113.782 6.56943L111.51 4.08336ZM113.488 16.6203L116.002 14.3749L118.274 16.8869L115.759 19.1337L113.488 16.6203ZM118.218 19.427L115.703 21.6728L117.974 24.1844L120.488 21.9129L118.218 19.427ZM116.733 10.1237L118.409 8.62665L119.923 10.2846L118.247 11.7811L116.733 10.1237ZM116.242 3.65497L114.565 5.17829L116.079 6.83566L117.757 5.33872L116.242 3.65497ZM118.869 15.0699L120.545 13.573L122.087 15.2304L120.384 16.7269L118.869 15.0699ZM113.836 9.10803L111.32 11.3534L113.592 13.8394L116.106 11.5935L113.836 9.10803Z" fill="#9088AD"/>
<path d="M7.41703 10.1423H7.28949L4.89502 19.2369H2.93788L0 6.31641H2.03064L4.06176 15.9573H4.1886L6.5456 6.31641H8.16002L10.6807 15.9573H10.8076L12.6576 6.31641H14.7794L11.8407 19.2369H9.88213L7.41703 10.1423Z" fill="#9088AD"/>
<path fill-rule="evenodd" clip-rule="evenodd" d="M22.9596 18.547V17.1618C21.963 17.762 21.0563 18.1089 20.0774 18.1089C18.2089 18.1089 17.3209 17.1428 17.3209 14.9566H23.2325V14.2823C23.2325 11.3125 21.8353 9.83545 19.5692 9.83545C16.8491 9.83545 15.4531 11.8401 15.4531 14.6112C15.4531 17.4902 16.7043 19.3854 19.7499 19.3854C21.0563 19.3854 22.1438 19.0207 22.9596 18.547ZM21.5082 13.7345H17.3563C17.555 11.9132 18.4078 11.0569 19.5139 11.0569C20.4928 11.0569 21.4181 11.8216 21.5082 13.7345Z" fill="#9088AD"/>
<path fill-rule="evenodd" clip-rule="evenodd" d="M27.4688 10.6184C28.0115 10.3278 28.9361 9.94373 29.9157 9.94373C32.1645 9.94373 33.3797 11.5109 33.3797 14.4269C33.3797 17.8349 31.7474 19.4933 29.1194 19.4933C28.1575 19.4933 26.6707 19.1834 25.582 18.5989V5.88024L27.4688 5.42529V10.6184ZM29.1177 18.2178C28.6636 18.2178 28.0285 18.1801 27.4481 17.925H27.4481V11.9665C28.1736 11.5664 28.6993 11.3653 29.4252 11.3653C30.6396 11.3653 31.4737 12.1125 31.4737 14.4269C31.4737 17.3783 30.4593 18.2178 29.1177 18.2178Z" fill="#9088AD"/>
<path d="M41.5374 16.4946H41.6282L45.5081 6.30762H47.7578V19.2291H45.7994V9.86149H45.6359L41.9361 19.2291H40.7767L37.076 10.0805H36.9134V19.2291H35.2812V6.30762H37.4761L41.5374 16.4946Z" fill="#9088AD"/>
<path fill-rule="evenodd" clip-rule="evenodd" d="M53.5326 9.83496C51.1397 9.83496 49.3984 11.4199 49.3984 14.6101C49.3984 17.7257 51.0485 19.3849 53.5326 19.3849C56.0173 19.3849 57.6673 17.7257 57.6673 14.6101C57.6673 11.4199 55.927 9.83496 53.5326 9.83496ZM53.5324 11.1109C54.7654 11.1109 55.762 12.1492 55.762 14.6092C55.762 17.1061 54.8192 18.1074 53.5324 18.1074C52.2455 18.1074 51.3015 17.106 51.3015 14.6092C51.3015 12.1492 52.336 11.1109 53.5324 11.1109Z" fill="#9088AD"/>
<path d="M59.0977 11.185C59.9136 10.6922 61.637 9.83545 63.7218 9.83545C65.8977 9.83545 66.7123 10.6922 66.7123 12.5687V19.1665H64.8277V12.9884C64.8277 11.549 64.1217 11.2939 63.1957 11.2939C62.4713 11.2939 61.5453 11.6224 60.9836 11.9504V19.1665H59.0977V11.185H59.0977Z" fill="#9088AD"/>
<path fill-rule="evenodd" clip-rule="evenodd" d="M76.3108 18.547V17.1618C75.3152 17.762 74.4072 18.1089 73.429 18.1089C71.5612 18.1089 70.6726 17.1428 70.6726 14.9566H76.5849V14.2823C76.5849 11.3125 75.188 9.83545 72.9205 9.83545C70.2002 9.83545 68.8047 11.8401 68.8047 14.6112C68.8047 17.4902 70.0567 19.3854 73.1013 19.3854C74.4072 19.3854 75.4952 19.0207 76.3108 18.547ZM74.8601 13.7345H70.7079C70.9082 11.9132 71.7593 11.0569 72.8657 11.0569C73.845 11.0569 74.7709 11.8216 74.8601 13.7345Z" fill="#9088AD"/>
<path d="M84.1119 9.83545H86.0527L82.7703 18.946C81.8624 21.4611 80.7575 22.7733 78.6725 22.7733V21.28C79.9063 21.28 80.6667 20.2954 81.1029 18.946L77.6211 9.83545H79.6161L81.937 16.5416H82.0459L84.1119 9.83545Z" fill="#9088AD"/>
</svg>
